<svg width="200" height="45" xmlns="http://www.w3.org/2000/svg" class="svg-src">
	<g fill="#24556D" fill-rule="evenodd">
		<path d="M23.327 13.922c1.467 0-6.44-8.991 3.168-13.234 9.607-4.243 4.358 12.527 5.826 12.527 1.467 0 5.144-6.379 7.614-5.708 6.695 1.819-4.957 6.278-4.957 7.729 0 1.45 8.494-4.427 8.33-2.253-.715 9.512-8.33 9.995-8.33 11.446 0 1.45 14.411-3.081 7.615 8.233-2.21 3.68-8.805-4.9-10.272-4.9-1.468 0 7.614 10.002-.608 16.064-8.221 6.061-5.59-15.053-7.058-15.053-1.467 0 2.607 16.921-5.979 13.689-8.585-3.233-.934-16.316-2.401-16.316-1.468 0-6.286 11.466-11.345 2.674-5.06-8.792 10.22-6.88 10.22-8.331 0-1.45-18.806 3.94-14.513-8.587 4.293-12.527 14.17 2.93 15.638 2.93 1.467 0-12.623-13.487-4.293-14.65 8.33-1.16 9.877 13.74 11.345 13.74z" fill-rule="nonzero"/>
		<path d="M58.067 15.368v3.396h8.361v5.038h-8.36v6.34H51.31V10.33h16.292v5.038h-9.535zM69.75 10.33h6.758v14.632h9.048v5.18H69.749V10.33zm27.889 20.264c-2.157 0-4.095-.443-5.813-1.33s-3.063-2.118-4.037-3.693c-.973-1.576-1.46-3.354-1.46-5.335 0-1.981.487-3.76 1.46-5.335.974-1.576 2.32-2.807 4.037-3.693 1.718-.887 3.656-1.33 5.813-1.33 2.157 0 4.094.443 5.812 1.33 1.718.886 3.064 2.117 4.037 3.693.974 1.575 1.46 3.354 1.46 5.335 0 1.981-.486 3.76-1.46 5.335-.973 1.575-2.319 2.806-4.037 3.693s-3.655 1.33-5.812 1.33zm0-5.405c.84 0 1.598-.203 2.276-.609.678-.405 1.217-.98 1.618-1.726.4-.746.601-1.618.601-2.618 0-1-.2-1.873-.601-2.618-.401-.745-.94-1.32-1.618-1.726-.678-.406-1.436-.609-2.276-.609-.84 0-1.599.203-2.277.609-.677.405-1.216.98-1.617 1.726-.401.745-.602 1.618-.602 2.618 0 1 .2 1.872.602 2.618.4.745.94 1.32 1.617 1.726.678.406 1.437.609 2.277.609zm24.28 5.405c-2.157 0-4.094-.443-5.812-1.33s-3.064-2.118-4.037-3.693c-.974-1.576-1.46-3.354-1.46-5.335 0-1.981.486-3.76 1.46-5.335.973-1.576 2.319-2.807 4.037-3.693 1.718-.887 3.655-1.33 5.812-1.33 2.157 0 4.095.443 5.813 1.33 1.718.886 3.064 2.117 4.037 3.693.974 1.575 1.46 3.354 1.46 5.335 0 1.981-.486 3.76-1.46 5.335-.973 1.575-2.32 2.806-4.037 3.693-1.718.887-3.656 1.33-5.813 1.33zm0-5.405c.84 0 1.6-.203 2.277-.609.677-.405 1.217-.98 1.617-1.726.401-.746.602-1.618.602-2.618 0-1-.2-1.873-.602-2.618-.4-.745-.94-1.32-1.617-1.726-.678-.406-1.437-.609-2.277-.609-.84 0-1.598.203-2.276.609-.678.405-1.217.98-1.618 1.726-.4.745-.601 1.618-.601 2.618 0 1 .2 1.872.601 2.618.401.745.94 1.32 1.618 1.726.678.406 1.436.609 2.276.609zm27.03-5.49h5.87v8.376c-1.184.812-2.558 1.434-4.124 1.868-1.565.434-3.102.651-4.61.651-2.137 0-4.056-.438-5.755-1.316-1.699-.877-3.03-2.103-3.994-3.679-.964-1.575-1.446-3.363-1.446-5.363 0-2 .482-3.788 1.446-5.363.964-1.576 2.31-2.802 4.037-3.68 1.728-.877 3.68-1.316 5.856-1.316 1.966 0 3.727.326 5.282.977 1.556.65 2.85 1.599 3.88 2.844l-4.323 3.764c-1.26-1.453-2.759-2.179-4.496-2.179-1.489 0-2.672.443-3.55 1.33-.878.887-1.317 2.095-1.317 3.623 0 1.49.434 2.689 1.302 3.594.869.906 2.029 1.359 3.48 1.359.858 0 1.68-.16 2.462-.481v-5.01zm22.42 6.99h-7.617l-1.346 3.453h-6.872l8.762-19.812h6.643l8.761 19.812h-6.986l-1.346-3.453zm-1.862-4.812l-1.947-4.98-1.947 4.98h3.894zm19.871 3.283h-1.832v4.982h-6.758V10.33h9.65c1.851 0 3.464.302 4.839.906 1.374.604 2.433 1.472 3.178 2.604.744 1.132 1.117 2.452 1.117 3.962 0 1.415-.325 2.65-.974 3.707s-1.584 1.897-2.806 2.52L200 30.141h-7.215l-3.408-4.982zm3.379-7.358c0-.736-.23-1.307-.687-1.712-.458-.406-1.146-.609-2.062-.609h-2.462v4.642h2.462c.916 0 1.604-.203 2.062-.609.458-.406.687-.976.687-1.712z"/>
	</g>
</svg>
