<?xml version="1.0" encoding="UTF-8"?>
<svg width="200px" height="45px" viewBox="0 0 200 45" version="1.1" xmlns="http://www.w3.org/2000/svg" xmlns:xlink="http://www.w3.org/1999/xlink">
    <!-- Generator: Sketch 51.1 (57501) - http://www.bohemiancoding.com/sketch -->
    <title>logo</title>
    <desc>Created with Sketch.</desc>
    <defs></defs>
    <g id="Page-1" stroke="none" stroke-width="1" fill="none" fill-rule="evenodd">
        <g id="logo" fill="#24556D">
            <path d="M23.3267666,13.9222103 C24.7943809,13.9222103 16.887801,4.93101641 26.4951464,0.687981078 C36.1024919,-3.55505425 30.8532628,13.2150378 32.3208772,13.2150378 C33.7884916,13.2150378 37.4651329,6.83618994 39.9352095,7.507145 C46.6296896,9.32558871 34.9782281,13.7848771 34.9782281,15.2355308 C34.9782281,16.6861845 43.4715221,10.8090264 43.308001,12.9830212 C42.5925604,22.4947212 34.9782281,22.9781203 34.9782281,24.428774 C34.9782281,25.8794277 49.3892462,21.3475221 42.5925604,32.662283 C40.3822467,36.3418956 33.7884916,27.7625875 32.3208772,27.7625875 C30.8532628,27.7625875 39.9352095,37.7640279 31.7133669,43.8255069 C23.4915244,49.8869859 26.1230564,28.772834 24.655442,28.772834 C23.1878276,28.772834 27.26169,45.6944629 18.6764025,42.4616741 C10.0911151,39.2288853 17.7421805,26.146193 16.2745662,26.146193 C14.8069518,26.146193 9.98890932,37.6124909 4.92972209,28.8203496 C-0.129465142,20.0282083 15.1503024,21.9394663 15.1503024,20.4888126 C15.1503024,19.0381589 -3.65556533,24.428774 0.637078378,11.9017173 C4.92972209,-0.625339381 14.8069518,14.8314322 16.2745662,14.8314322 C17.7421805,14.8314322 3.65214956,1.34464131 11.9819225,0.182857824 C20.3116954,-0.978925658 21.8591522,13.9222103 23.3267666,13.9222103 Z" id="Combined-Shape" fill-rule="nonzero"></path>
            <path d="M58.067287,15.3679245 L58.067287,18.7641509 L66.4280601,18.7641509 L66.4280601,23.8018868 L58.067287,23.8018868 L58.067287,30.1415094 L51.3099499,30.1415094 L51.3099499,10.3301887 L67.6020043,10.3301887 L67.6020043,15.3679245 L58.067287,15.3679245 Z M69.7494631,10.3301887 L76.5068003,10.3301887 L76.5068003,24.9622642 L85.5547602,24.9622642 L85.5547602,30.1415094 L69.7494631,30.1415094 L69.7494631,10.3301887 Z M97.6377953,30.5943396 C95.4807814,30.5943396 93.5433157,30.1509478 91.82534,29.2641509 C90.1073644,28.3773541 88.7616369,27.1462343 87.7881174,25.5707547 C86.8145979,23.9952751 86.3278454,22.216991 86.3278454,20.2358491 C86.3278454,18.2547071 86.8145979,16.476423 87.7881174,14.9009434 C88.7616369,13.3254638 90.1073644,12.0943441 91.82534,11.2075472 C93.5433157,10.3207503 95.4807814,9.87735849 97.6377953,9.87735849 C99.7948092,9.87735849 101.732275,10.3207503 103.450251,11.2075472 C105.168226,12.0943441 106.513954,13.3254638 107.487473,14.9009434 C108.460993,16.476423 108.947745,18.2547071 108.947745,20.2358491 C108.947745,22.216991 108.460993,23.9952751 107.487473,25.5707547 C106.513954,27.1462343 105.168226,28.3773541 103.450251,29.2641509 C101.732275,30.1509478 99.7948092,30.5943396 97.6377953,30.5943396 Z M97.6377953,25.1886792 C98.4776945,25.1886792 99.2364557,24.9858511 99.9141016,24.5801887 C100.591748,24.1745263 101.130993,23.5990603 101.531854,22.8537736 C101.932715,22.1084868 102.133142,21.2358541 102.133142,20.2358491 C102.133142,19.2358441 101.932715,18.3632113 101.531854,17.6179245 C101.130993,16.8726378 100.591748,16.2971718 99.9141016,15.8915094 C99.2364557,15.485847 98.4776945,15.2830189 97.6377953,15.2830189 C96.7978961,15.2830189 96.0391349,15.485847 95.3614889,15.8915094 C94.6838429,16.2971718 94.1445976,16.8726378 93.7437366,17.6179245 C93.3428756,18.3632113 93.1424481,19.2358441 93.1424481,20.2358491 C93.1424481,21.2358541 93.3428756,22.1084868 93.7437366,22.8537736 C94.1445976,23.5990603 94.6838429,24.1745263 95.3614889,24.5801887 C96.0391349,24.9858511 96.7978961,25.1886792 97.6377953,25.1886792 Z M121.918397,30.5943396 C119.761383,30.5943396 117.823917,30.1509478 116.105941,29.2641509 C114.387966,28.3773541 113.042238,27.1462343 112.068719,25.5707547 C111.095199,23.9952751 110.608447,22.216991 110.608447,20.2358491 C110.608447,18.2547071 111.095199,16.476423 112.068719,14.9009434 C113.042238,13.3254638 114.387966,12.0943441 116.105941,11.2075472 C117.823917,10.3207503 119.761383,9.87735849 121.918397,9.87735849 C124.07541,9.87735849 126.012876,10.3207503 127.730852,11.2075472 C129.448827,12.0943441 130.794555,13.3254638 131.768074,14.9009434 C132.741594,16.476423 133.228346,18.2547071 133.228346,20.2358491 C133.228346,22.216991 132.741594,23.9952751 131.768074,25.5707547 C130.794555,27.1462343 129.448827,28.3773541 127.730852,29.2641509 C126.012876,30.1509478 124.07541,30.5943396 121.918397,30.5943396 Z M121.918397,25.1886792 C122.758296,25.1886792 123.517057,24.9858511 124.194703,24.5801887 C124.872349,24.1745263 125.411594,23.5990603 125.812455,22.8537736 C126.213316,22.1084868 126.413744,21.2358541 126.413744,20.2358491 C126.413744,19.2358441 126.213316,18.3632113 125.812455,17.6179245 C125.411594,16.8726378 124.872349,16.2971718 124.194703,15.8915094 C123.517057,15.485847 122.758296,15.2830189 121.918397,15.2830189 C121.078497,15.2830189 120.319736,15.485847 119.64209,15.8915094 C118.964444,16.2971718 118.425199,16.8726378 118.024338,17.6179245 C117.623477,18.3632113 117.423049,19.2358441 117.423049,20.2358491 C117.423049,21.2358541 117.623477,22.1084868 118.024338,22.8537736 C118.425199,23.5990603 118.964444,24.1745263 119.64209,24.5801887 C120.319736,24.9858511 121.078497,25.1886792 121.918397,25.1886792 Z M148.947745,19.6981132 L154.817466,19.6981132 L154.817466,28.0754717 C153.633972,28.8867965 152.259612,29.5094318 150.694345,29.9433962 C149.129078,30.3773607 147.592468,30.5943396 146.084467,30.5943396 C143.946541,30.5943396 142.028164,30.1556648 140.329277,29.2783019 C138.63039,28.400939 137.298979,27.1745362 136.335004,25.5990566 C135.371028,24.023577 134.889048,22.2358591 134.889048,20.2358491 C134.889048,18.2358391 135.371028,16.4481211 136.335004,14.8726415 C137.298979,13.2971619 138.644706,12.0707591 140.372226,11.1933962 C142.099746,10.3160333 144.051528,9.87735849 146.227631,9.87735849 C148.193758,9.87735849 149.954657,10.2028269 151.510379,10.8537736 C153.066102,11.5047202 154.359336,12.452824 155.390122,13.6981132 L151.066571,17.4622642 C149.806722,16.0094267 148.308288,15.2830189 146.571224,15.2830189 C145.082312,15.2830189 143.898835,15.7264107 143.020759,16.6132075 C142.142682,17.5000044 141.703651,18.7075395 141.703651,20.2358491 C141.703651,21.7264225 142.13791,22.9245238 143.006442,23.8301887 C143.874975,24.7358536 145.034591,25.1886792 146.485326,25.1886792 C147.344314,25.1886792 148.165112,25.0283035 148.947745,24.7075472 L148.947745,19.6981132 Z M171.367215,26.6886792 L163.750895,26.6886792 L162.405154,30.1415094 L155.533286,30.1415094 L164.294918,10.3301887 L170.937724,10.3301887 L179.699356,30.1415094 L172.712956,30.1415094 L171.367215,26.6886792 Z M169.506084,21.8773585 L167.559055,16.8962264 L165.612026,21.8773585 L169.506084,21.8773585 Z M189.377237,25.1603774 L187.544739,25.1603774 L187.544739,30.1415094 L180.787402,30.1415094 L180.787402,10.3301887 L190.43665,10.3301887 C192.288246,10.3301887 193.90121,10.6320725 195.275591,11.2358491 C196.649971,11.8396257 197.709374,12.7075415 198.45383,13.8396226 C199.198286,14.9717038 199.570508,16.2924453 199.570508,17.8018868 C199.570508,19.2169882 199.246007,20.4528249 198.596994,21.509434 C197.947981,22.566043 197.012652,23.4056573 195.790981,24.0283019 L200,30.1415094 L192.784538,30.1415094 L189.377237,25.1603774 Z M192.755906,17.8018868 C192.755906,17.0660341 192.526846,16.495285 192.068719,16.0896226 C191.610592,15.6839602 190.923412,15.4811321 190.007158,15.4811321 L187.544739,15.4811321 L187.544739,20.1226415 L190.007158,20.1226415 C190.923412,20.1226415 191.610592,19.9198133 192.068719,19.5141509 C192.526846,19.1084885 192.755906,18.5377395 192.755906,17.8018868 Z" id="FLOOGAR"></path>
        </g>
    </g>
</svg>